<svg version="1.1" xmlns="http://www.w3.org/2000/svg" xmlns:xlink="http://www.w3.org/1999/xlink" width="543.57080078125" height="613"><defs/><g><g><rect fill="#C0C0C0" stroke="none" x="647" y="63" width="136" height="73" transform="matrix(1 0 0 1 -382 -46)" fill-opacity="0.2"/></g><g><rect fill="#ffffff" stroke="none" x="640" y="56" width="136" height="73" transform="matrix(1 0 0 1 -382 -46)"/></g><g><path fill="none" stroke="#000000" paint-order="fill stroke markers" d=" M 258 10 L 394 10 L 394 83 L 258 83 L 258 10 Z Z" stroke-miterlimit="10" stroke-dasharray=""/></g><g><path fill="none" stroke="#000000" paint-order="fill stroke markers" d=" M 258 35 L 394 35" stroke-miterlimit="10" stroke-dasharray=""/></g><g><path fill="none" stroke="#000000" paint-order="fill stroke markers" d=" M 258 45 L 394 45" stroke-miterlimit="10" stroke-dasharray=""/></g><g><g><path fill="none" stroke="none"/><text fill="#000000" stroke="none" font-family="Arial" font-size="13px" font-style="normal" font-weight="bold" text-decoration="undefined" x="708.5" y="69.5" text-anchor="middle" dominant-baseline="central" transform="matrix(1 0 0 1 -382 -46)">Main</text></g></g><g><g><path fill="none" stroke="none"/><text fill="#000000" stroke="none" font-family="Arial" font-size="13px" font-style="normal" font-weight="normal" text-decoration="undefined" x="645" y="102.5" text-anchor="start" dominant-baseline="central" transform="matrix(1 0 0 1 -382 -46)">+main(String args[])</text></g></g><g><g><path fill="none" stroke="none"/><text fill="#000000" stroke="none" font-family="Arial" font-size="13px" font-style="normal" font-weight="normal" text-decoration="undefined" x="645" y="117.5" text-anchor="start" dominant-baseline="central" transform="matrix(1 0 0 1 -382 -46)">+exec(String args[])</text></g></g><g><rect fill="#C0C0C0" stroke="none" x="647" y="215" width="107.919921875" height="88" transform="matrix(1 0 0 1 -382 -46)" fill-opacity="0.2"/></g><g><rect fill="#ffffff" stroke="none" x="640" y="208" width="107.919921875" height="88" transform="matrix(1 0 0 1 -382 -46)"/></g><g><path fill="none" stroke="#000000" paint-order="fill stroke markers" d=" M 258 162 L 365.919921875 162 L 365.919921875 250 L 258 250 L 258 162 Z Z" stroke-miterlimit="10" stroke-dasharray=""/></g><g><path fill="none" stroke="#000000" paint-order="fill stroke markers" d=" M 258 187 L 365.919921875 187" stroke-miterlimit="10" stroke-dasharray=""/></g><g><path fill="none" stroke="#000000" paint-order="fill stroke markers" d=" M 258 240 L 365.919921875 240" stroke-miterlimit="10" stroke-dasharray=""/></g><g><g><path fill="none" stroke="none"/><text fill="#000000" stroke="none" font-family="Arial" font-size="13px" font-style="normal" font-weight="bold" text-decoration="undefined" x="694.4599609375" y="221.5" text-anchor="middle" dominant-baseline="central" transform="matrix(1 0 0 1 -382 -46)">Item</text></g></g><g><g><path fill="none" stroke="none"/><text fill="#000000" stroke="none" font-family="Arial" font-size="13px" font-style="normal" font-weight="normal" text-decoration="undefined" x="645" y="244.5" text-anchor="start" dominant-baseline="central" transform="matrix(1 0 0 1 -382 -46)">+String name</text></g></g><g><g><path fill="none" stroke="none"/><text fill="#000000" stroke="none" font-family="Arial" font-size="13px" font-style="normal" font-weight="normal" text-decoration="undefined" x="645" y="259.5" text-anchor="start" dominant-baseline="central" transform="matrix(1 0 0 1 -382 -46)">+int quantity</text></g></g><g><g><path fill="none" stroke="none"/><text fill="#000000" stroke="none" font-family="Arial" font-size="13px" font-style="normal" font-weight="normal" text-decoration="undefined" x="645" y="274.5" text-anchor="start" dominant-baseline="central" transform="matrix(1 0 0 1 -382 -46)">+String category</text></g></g><g><rect fill="#C0C0C0" stroke="none" x="407" y="63" width="136" height="73" transform="matrix(1 0 0 1 -382 -46)" fill-opacity="0.2"/></g><g><rect fill="#ffffff" stroke="none" x="400" y="56" width="136" height="73" transform="matrix(1 0 0 1 -382 -46)"/></g><g><path fill="none" stroke="#000000" paint-order="fill stroke markers" d=" M 18 10 L 154 10 L 154 83 L 18 83 L 18 10 Z Z" stroke-miterlimit="10" stroke-dasharray=""/></g><g><path fill="none" stroke="#000000" paint-order="fill stroke markers" d=" M 18 35 L 154 35" stroke-miterlimit="10" stroke-dasharray=""/></g><g><path fill="none" stroke="#000000" paint-order="fill stroke markers" d=" M 18 45 L 154 45" stroke-miterlimit="10" stroke-dasharray=""/></g><g><g><path fill="none" stroke="none"/><text fill="#000000" stroke="none" font-family="Arial" font-size="13px" font-style="normal" font-weight="bold" text-decoration="undefined" x="468.5" y="69.5" text-anchor="middle" dominant-baseline="central" transform="matrix(1 0 0 1 -382 -46)">CLI</text></g></g><g><g><path fill="none" stroke="none"/><text fill="#000000" stroke="none" font-family="Arial" font-size="13px" font-style="normal" font-weight="normal" text-decoration="undefined" x="405" y="102.5" text-anchor="start" dominant-baseline="central" transform="matrix(1 0 0 1 -382 -46)">+main(String args[])</text></g></g><g><g><path fill="none" stroke="none"/><text fill="#000000" stroke="none" font-family="Arial" font-size="13px" font-style="normal" font-weight="normal" text-decoration="undefined" x="405" y="117.5" text-anchor="start" dominant-baseline="central" transform="matrix(1 0 0 1 -382 -46)">+exec(String args[])</text></g></g><g><rect fill="#C0C0C0" stroke="none" x="399" y="167" width="152" height="191" transform="matrix(1 0 0 1 -382 -46)" fill-opacity="0.2"/></g><g><rect fill="#ffffff" stroke="none" x="392" y="160" width="152" height="191" transform="matrix(1 0 0 1 -382 -46)"/></g><g><path fill="none" stroke="#000000" paint-order="fill stroke markers" d=" M 10 114 L 162 114 L 162 305 L 10 305 L 10 114 Z Z" stroke-miterlimit="10" stroke-dasharray=""/></g><g><path fill="none" stroke="#000000" paint-order="fill stroke markers" d=" M 10 139 L 162 139" stroke-miterlimit="10" stroke-dasharray=""/></g><g><path fill="none" stroke="#000000" paint-order="fill stroke markers" d=" M 10 192 L 162 192" stroke-miterlimit="10" stroke-dasharray=""/></g><g><g><path fill="none" stroke="none"/><text fill="#000000" stroke="none" font-family="Arial" font-size="13px" font-style="normal" font-weight="bold" text-decoration="undefined" x="468.5" y="173.5" text-anchor="middle" dominant-baseline="central" transform="matrix(1 0 0 1 -382 -46)">GroceryListManager</text></g></g><g><g><path fill="none" stroke="none"/><text fill="#000000" stroke="none" font-family="Arial" font-size="13px" font-style="normal" font-weight="normal" text-decoration="undefined" x="397" y="196.5" text-anchor="start" dominant-baseline="central" transform="matrix(1 0 0 1 -382 -46)">#String filename</text></g></g><g><g><path fill="none" stroke="none"/><text fill="#000000" stroke="none" font-family="Arial" font-size="13px" font-style="normal" font-weight="normal" text-decoration="undefined" x="397" y="211.5" text-anchor="start" dominant-baseline="central" transform="matrix(1 0 0 1 -382 -46)">#GroceryListDAO dao</text></g></g><g><g><path fill="none" stroke="none"/><text fill="#000000" stroke="none" font-family="Arial" font-size="13px" font-style="normal" font-weight="normal" text-decoration="undefined" x="397" y="226.5" text-anchor="start" dominant-baseline="central" transform="matrix(1 0 0 1 -382 -46)">#List&lt;Item&gt; groceryList</text></g></g><g><g><path fill="none" stroke="none"/><text fill="#000000" stroke="none" font-family="Arial" font-size="13px" font-style="normal" font-weight="normal" text-decoration="undefined" x="397" y="249.5" text-anchor="start" dominant-baseline="central" transform="matrix(1 0 0 1 -382 -46)">+list()</text></g></g><g><g><path fill="none" stroke="none"/><text fill="#000000" stroke="none" font-family="Arial" font-size="13px" font-style="normal" font-weight="normal" text-decoration="undefined" x="397" y="264.5" text-anchor="start" dominant-baseline="central" transform="matrix(1 0 0 1 -382 -46)">+add()</text></g></g><g><g><path fill="none" stroke="none"/><text fill="#000000" stroke="none" font-family="Arial" font-size="13px" font-style="normal" font-weight="normal" text-decoration="undefined" x="397" y="279.5" text-anchor="start" dominant-baseline="central" transform="matrix(1 0 0 1 -382 -46)">+remove()</text></g></g><g><g><path fill="none" stroke="none"/><text fill="#000000" stroke="none" font-family="Arial" font-size="13px" font-style="normal" font-weight="normal" text-decoration="undefined" x="397" y="294.5" text-anchor="start" dominant-baseline="central" transform="matrix(1 0 0 1 -382 -46)">+loadFromFile()</text></g></g><g><g><path fill="none" stroke="none"/><text fill="#000000" stroke="none" font-family="Arial" font-size="13px" font-style="normal" font-weight="normal" text-decoration="undefined" x="397" y="309.5" text-anchor="start" dominant-baseline="central" transform="matrix(1 0 0 1 -382 -46)">+saveToFile()</text></g></g><g><g><path fill="none" stroke="none"/><text fill="#000000" stroke="none" font-family="Arial" font-size="13px" font-style="normal" font-weight="normal" text-decoration="undefined" x="397" y="324.5" text-anchor="start" dominant-baseline="central" transform="matrix(1 0 0 1 -382 -46)">+initialize()</text></g></g><g><g><path fill="none" stroke="none"/><text fill="#000000" stroke="none" font-family="Arial" font-size="13px" font-style="normal" font-weight="normal" text-decoration="undefined" x="397" y="339.5" text-anchor="start" dominant-baseline="central" transform="matrix(1 0 0 1 -382 -46)">+handleCommand()</text></g></g><g><rect fill="#C0C0C0" stroke="none" x="831" y="583" width="90.57080078125" height="73" transform="matrix(1 0 0 1 -382 -46)" fill-opacity="0.2"/></g><g><rect fill="#ffffff" stroke="none" x="824" y="576" width="90.57080078125" height="73" transform="matrix(1 0 0 1 -382 -46)"/></g><g><path fill="none" stroke="#000000" paint-order="fill stroke markers" d=" M 442 530 L 532.57080078125 530 L 532.57080078125 603 L 442 603 L 442 530 Z Z" stroke-miterlimit="10" stroke-dasharray=""/></g><g><path fill="none" stroke="#000000" paint-order="fill stroke markers" d=" M 442 555 L 532.57080078125 555" stroke-miterlimit="10" stroke-dasharray=""/></g><g><path fill="none" stroke="#000000" paint-order="fill stroke markers" d=" M 442 565 L 532.57080078125 565" stroke-miterlimit="10" stroke-dasharray=""/></g><g><g><path fill="none" stroke="none"/><text fill="#000000" stroke="none" font-family="Arial" font-size="13px" font-style="normal" font-weight="bold" text-decoration="undefined" x="869.785400390625" y="589.5" text-anchor="middle" dominant-baseline="central" transform="matrix(1 0 0 1 -382 -46)">CSV</text></g></g><g><g><path fill="none" stroke="none"/><text fill="#000000" stroke="none" font-family="Arial" font-size="13px" font-style="normal" font-weight="normal" text-decoration="undefined" x="829" y="622.5" text-anchor="start" dominant-baseline="central" transform="matrix(1 0 0 1 -382 -46)">+save()</text></g></g><g><g><path fill="none" stroke="none"/><text fill="#000000" stroke="none" font-family="Arial" font-size="13px" font-style="normal" font-weight="normal" text-decoration="undefined" x="829" y="637.5" text-anchor="start" dominant-baseline="central" transform="matrix(1 0 0 1 -382 -46)">+load()</text></g></g><g><rect fill="#C0C0C0" stroke="none" x="831" y="415" width="90.57080078125" height="73" transform="matrix(1 0 0 1 -382 -46)" fill-opacity="0.2"/></g><g><rect fill="#ffffff" stroke="none" x="824" y="408" width="90.57080078125" height="73" transform="matrix(1 0 0 1 -382 -46)"/></g><g><path fill="none" stroke="#000000" paint-order="fill stroke markers" d=" M 442 362 L 532.57080078125 362 L 532.57080078125 435 L 442 435 L 442 362 Z Z" stroke-miterlimit="10" stroke-dasharray=""/></g><g><path fill="none" stroke="#000000" paint-order="fill stroke markers" d=" M 442 387 L 532.57080078125 387" stroke-miterlimit="10" stroke-dasharray=""/></g><g><path fill="none" stroke="#000000" paint-order="fill stroke markers" d=" M 442 397 L 532.57080078125 397" stroke-miterlimit="10" stroke-dasharray=""/></g><g><g><path fill="none" stroke="none"/><text fill="#000000" stroke="none" font-family="Arial" font-size="13px" font-style="normal" font-weight="bold" text-decoration="undefined" x="869.785400390625" y="421.5" text-anchor="middle" dominant-baseline="central" transform="matrix(1 0 0 1 -382 -46)">JSON</text></g></g><g><g><path fill="none" stroke="none"/><text fill="#000000" stroke="none" font-family="Arial" font-size="13px" font-style="normal" font-weight="normal" text-decoration="undefined" x="829" y="454.5" text-anchor="start" dominant-baseline="central" transform="matrix(1 0 0 1 -382 -46)">+save()</text></g></g><g><g><path fill="none" stroke="none"/><text fill="#000000" stroke="none" font-family="Arial" font-size="13px" font-style="normal" font-weight="normal" text-decoration="undefined" x="829" y="469.5" text-anchor="start" dominant-baseline="central" transform="matrix(1 0 0 1 -382 -46)">+load()</text></g></g><g><path fill="#C0C0C0" stroke="none" paint-order="stroke fill markers" d=" M 84.930419921875 477 C 84.930419921875 470.37258240000006 90.303002321875 465 96.930419921875 465 C 103.557837521875 465 108.930419921875 470.37258240000006 108.930419921875 477 C 108.930419921875 483.62741759999994 103.557837521875 489 96.930419921875 489 C 90.303002321875 489 84.930419921875 483.62741759999994 84.930419921875 477 Z" fill-opacity="0.2"/></g><g><path fill="#ffffff" stroke="none" paint-order="stroke fill markers" d=" M 77.930419921875 470 C 77.930419921875 463.3725824 83.303002321875 458 89.930419921875 458 C 96.557837521875 458 101.930419921875 463.3725824 101.930419921875 470 C 101.930419921875 476.62741759999994 96.557837521875 482 89.930419921875 482 C 83.303002321875 482 77.930419921875 476.62741759999994 77.930419921875 470 Z"/></g><g><path fill="none" stroke="#000000" paint-order="fill stroke markers" d=" M 77.930419921875 470 C 77.930419921875 463.3725824 83.303002321875 458 89.930419921875 458 C 96.557837521875 458 101.930419921875 463.3725824 101.930419921875 470 C 101.930419921875 476.62741759999994 96.557837521875 482 89.930419921875 482 C 83.303002321875 482 77.930419921875 476.62741759999994 77.930419921875 470 Z" stroke-miterlimit="10" stroke-dasharray=""/></g><g><path fill="none" stroke="#000000" paint-order="fill stroke markers" d=" M 34 507 L 145.86083984375 507" stroke-miterlimit="10" stroke-dasharray=""/></g><g><g><path fill="none" stroke="none"/><text fill="#000000" stroke="none" font-family="Arial" font-size="13px" font-style="normal" font-weight="bold" text-decoration="undefined" x="472.430419921875" y="541.5" text-anchor="middle" dominant-baseline="central" transform="matrix(1 0 0 1 -382 -46)">GroceryListDAO</text></g></g><g><g><path fill="none" stroke="none"/><text fill="#000000" stroke="none" font-family="Arial" font-size="13px" font-style="normal" font-weight="normal" text-decoration="undefined" x="421" y="564.5" text-anchor="start" dominant-baseline="central" transform="matrix(1 0 0 1 -382 -46)">+save()</text></g></g><g><g><path fill="none" stroke="none"/><text fill="#000000" stroke="none" font-family="Arial" font-size="13px" font-style="normal" font-weight="normal" text-decoration="undefined" x="421" y="579.5" text-anchor="start" dominant-baseline="central" transform="matrix(1 0 0 1 -382 -46)">+load()</text></g></g><g><rect fill="#C0C0C0" stroke="none" x="623" y="583" width="138.5908203125" height="73" transform="matrix(1 0 0 1 -382 -46)" fill-opacity="0.2"/></g><g><rect fill="#ffffff" stroke="none" x="616" y="576" width="138.5908203125" height="73" transform="matrix(1 0 0 1 -382 -46)"/></g><g><path fill="none" stroke="#000000" paint-order="fill stroke markers" d=" M 234 530 L 372.5908203125 530 L 372.5908203125 603 L 234 603 L 234 530 Z Z" stroke-miterlimit="10" stroke-dasharray=""/></g><g><path fill="none" stroke="#000000" paint-order="fill stroke markers" d=" M 234 555 L 372.5908203125 555" stroke-miterlimit="10" stroke-dasharray=""/></g><g><path fill="none" stroke="#000000" paint-order="fill stroke markers" d=" M 234 565 L 372.5908203125 565" stroke-miterlimit="10" stroke-dasharray=""/></g><g><g><path fill="none" stroke="none"/><text fill="#000000" stroke="none" font-family="Arial" font-size="13px" font-style="normal" font-weight="bold" text-decoration="undefined" x="685.79541015625" y="589.5" text-anchor="middle" dominant-baseline="central" transform="matrix(1 0 0 1 -382 -46)">CSVGroceryListDAO</text></g></g><g><g><path fill="none" stroke="none"/><text fill="#000000" stroke="none" font-family="Arial" font-size="13px" font-style="normal" font-weight="normal" text-decoration="undefined" x="621" y="622.5" text-anchor="start" dominant-baseline="central" transform="matrix(1 0 0 1 -382 -46)">+load()</text></g></g><g><g><path fill="none" stroke="none"/><text fill="#000000" stroke="none" font-family="Arial" font-size="13px" font-style="normal" font-weight="normal" text-decoration="undefined" x="621" y="637.5" text-anchor="start" dominant-baseline="central" transform="matrix(1 0 0 1 -382 -46)">+save()</text></g></g><g><rect fill="#C0C0C0" stroke="none" x="399" y="407" width="158.82080078125" height="58" transform="matrix(1 0 0 1 -382 -46)" fill-opacity="0.2"/></g><g><rect fill="#ffffff" stroke="none" x="392" y="400" width="158.82080078125" height="58" transform="matrix(1 0 0 1 -382 -46)"/></g><g><path fill="none" stroke="#000000" paint-order="fill stroke markers" d=" M 10 354 L 168.82080078125 354 L 168.82080078125 412 L 10 412 L 10 354 Z Z" stroke-miterlimit="10" stroke-dasharray=""/></g><g><path fill="none" stroke="#000000" paint-order="fill stroke markers" d=" M 10 379 L 168.82080078125 379" stroke-miterlimit="10" stroke-dasharray=""/></g><g><path fill="none" stroke="#000000" paint-order="fill stroke markers" d=" M 10 389 L 168.82080078125 389" stroke-miterlimit="10" stroke-dasharray=""/></g><g><g><path fill="none" stroke="none"/><text fill="#000000" stroke="none" font-family="Arial" font-size="13px" font-style="normal" font-weight="bold" text-decoration="undefined" x="471.910400390625" y="413.5" text-anchor="middle" dominant-baseline="central" transform="matrix(1 0 0 1 -382 -46)">GroceryListDAOFactory</text></g></g><g><g><path fill="none" stroke="none"/><text fill="#000000" stroke="none" font-family="Arial" font-size="13px" font-style="normal" font-weight="normal" text-decoration="undefined" x="397" y="446.5" text-anchor="start" dominant-baseline="central" transform="matrix(1 0 0 1 -382 -46)">+createDao()</text></g></g><g><rect fill="#C0C0C0" stroke="none" x="623" y="415" width="147.26171875" height="73" transform="matrix(1 0 0 1 -382 -46)" fill-opacity="0.2"/></g><g><rect fill="#ffffff" stroke="none" x="616" y="408" width="147.26171875" height="73" transform="matrix(1 0 0 1 -382 -46)"/></g><g><path fill="none" stroke="#000000" paint-order="fill stroke markers" d=" M 234 362 L 381.26171875 362 L 381.26171875 435 L 234 435 L 234 362 Z Z" stroke-miterlimit="10" stroke-dasharray=""/></g><g><path fill="none" stroke="#000000" paint-order="fill stroke markers" d=" M 234 387 L 381.26171875 387" stroke-miterlimit="10" stroke-dasharray=""/></g><g><path fill="none" stroke="#000000" paint-order="fill stroke markers" d=" M 234 397 L 381.26171875 397" stroke-miterlimit="10" stroke-dasharray=""/></g><g><g><path fill="none" stroke="none"/><text fill="#000000" stroke="none" font-family="Arial" font-size="13px" font-style="normal" font-weight="bold" text-decoration="undefined" x="690.130859375" y="421.5" text-anchor="middle" dominant-baseline="central" transform="matrix(1 0 0 1 -382 -46)">JSONGroceryListDAO</text></g></g><g><g><path fill="none" stroke="none"/><text fill="#000000" stroke="none" font-family="Arial" font-size="13px" font-style="normal" font-weight="normal" text-decoration="undefined" x="621" y="454.5" text-anchor="start" dominant-baseline="central" transform="matrix(1 0 0 1 -382 -46)">+save()</text></g></g><g><g><path fill="none" stroke="none"/><text fill="#000000" stroke="none" font-family="Arial" font-size="13px" font-style="normal" font-weight="normal" text-decoration="undefined" x="621" y="469.5" text-anchor="start" dominant-baseline="central" transform="matrix(1 0 0 1 -382 -46)">+load()</text></g></g><g><path fill="none" stroke="#000000" paint-order="fill stroke markers" d=" M 163 208 L 257 207" stroke-miterlimit="10" stroke-dasharray=""/></g><g><path fill="none" stroke="#000000" paint-order="fill stroke markers" d=" M 257 46 L 155 46" stroke-miterlimit="10" stroke-dasharray=""/></g><g><path fill="none" stroke="#000000" paint-order="fill stroke markers" d=" M 86 84 L 86 113" stroke-miterlimit="10" stroke-dasharray=""/></g><g><path fill="none" stroke="#000000" paint-order="fill stroke markers" d=" M 88 306 L 88 353" stroke-miterlimit="10" stroke-dasharray=""/></g><g><path fill="none" stroke="#000000" paint-order="fill stroke markers" d=" M 89 413 L 89 457" stroke-miterlimit="10" stroke-dasharray=""/></g><g><path fill="none" stroke="#000000" paint-order="fill stroke markers" d=" M 147 519 L 233 545" stroke-miterlimit="10" stroke-dasharray=""/></g><g><path fill="none" stroke="#000000" paint-order="fill stroke markers" d=" M 147 474 L 233 433" stroke-miterlimit="10" stroke-dasharray=""/></g><g><path fill="none" stroke="#000000" paint-order="fill stroke markers" d=" M 374 566 L 441 566" stroke-miterlimit="10" stroke-dasharray=""/></g><g><path fill="none" stroke="#000000" paint-order="fill stroke markers" d=" M 382 398 L 441 398" stroke-miterlimit="10" stroke-dasharray=""/></g></g></svg>